<svg width="59" height="16" viewBox="0 0 59 16" fill="none" xmlns="http://www.w3.org/2000/svg">
<rect opacity="0.1" width="59" height="16" rx="4" fill="#00D1C1"/>
<path d="M18.2319 9.51025H15.7534L15.2349 11H14.0791L16.4961 4.60156H17.4937L19.915 11H18.7549L18.2319 9.51025ZM16.0654 8.61377H17.9199L16.9927 5.95947L16.0654 8.61377ZM25.2456 4.60156V8.87744C25.2456 9.55713 25.0273 10.0962 24.5908 10.4946C24.1572 10.8901 23.5786 11.0879 22.855 11.0879C22.1226 11.0879 21.541 10.8931 21.1104 10.5034C20.6797 10.1108 20.4644 9.56738 20.4644 8.87305V4.60156H21.5718V8.88184C21.5718 9.30957 21.6802 9.63623 21.897 9.86182C22.1138 10.0874 22.4331 10.2002 22.855 10.2002C23.7104 10.2002 24.1382 9.74902 24.1382 8.84668V4.60156H25.2456ZM31.0596 5.49805H29.0645V11H27.9614V5.49805H25.9839V4.60156H31.0596V5.49805ZM36.8867 7.96777C36.8867 8.59473 36.7783 9.14551 36.5615 9.62012C36.3447 10.0918 36.0342 10.4551 35.6299 10.71C35.2285 10.9619 34.7656 11.0879 34.2412 11.0879C33.7227 11.0879 33.2598 10.9619 32.8525 10.71C32.4482 10.4551 32.1348 10.0933 31.9121 9.62451C31.6924 9.15576 31.5811 8.61523 31.5781 8.00293V7.64258C31.5781 7.01855 31.688 6.46777 31.9077 5.99023C32.1304 5.5127 32.4424 5.14795 32.8438 4.896C33.248 4.64111 33.7109 4.51367 34.2324 4.51367C34.7539 4.51367 35.2153 4.63965 35.6167 4.8916C36.021 5.14062 36.333 5.50098 36.5527 5.97266C36.7725 6.44141 36.8838 6.98779 36.8867 7.61182V7.96777ZM35.7749 7.63379C35.7749 6.9248 35.6401 6.38135 35.3706 6.00342C35.104 5.62549 34.7246 5.43652 34.2324 5.43652C33.752 5.43652 33.3755 5.62549 33.103 6.00342C32.8335 6.37842 32.6958 6.91016 32.6899 7.59863V7.96777C32.6899 8.6709 32.8262 9.21436 33.0986 9.59814C33.374 9.98193 33.7549 10.1738 34.2412 10.1738C34.7334 10.1738 35.1113 9.98633 35.375 9.61133C35.6416 9.23633 35.7749 8.68848 35.7749 7.96777V7.63379ZM39.106 8.62256V11H37.9941V4.60156H40.4419C41.1567 4.60156 41.7236 4.7876 42.1426 5.15967C42.5645 5.53174 42.7754 6.02393 42.7754 6.63623C42.7754 7.26318 42.5688 7.75098 42.1558 8.09961C41.7456 8.44824 41.1699 8.62256 40.4287 8.62256H39.106ZM39.106 7.73047H40.4419C40.8374 7.73047 41.1392 7.63818 41.3472 7.45361C41.5552 7.26611 41.6592 6.99658 41.6592 6.64502C41.6592 6.29932 41.5537 6.02393 41.3428 5.81885C41.1318 5.61084 40.8418 5.50391 40.4727 5.49805H39.106V7.73047ZM46.5503 9.51025H44.0718L43.5532 11H42.3975L44.8145 4.60156H45.812L48.2334 11H47.0732L46.5503 9.51025ZM44.3838 8.61377H46.2383L45.311 5.95947L44.3838 8.61377ZM50.3911 7.63379L51.8633 4.60156H53.0938L50.9492 8.64453V11H49.833V8.64453L47.6841 4.60156H48.9189L50.3911 7.63379Z" fill="#00A699"/>
<path d="M5 8.04498L7.1159 10L11 6" stroke="#00A699" stroke-linecap="round" stroke-linejoin="round"/>
</svg>
