<svg width="73" height="14" viewBox="0 0 73 14" fill="none" xmlns="http://www.w3.org/2000/svg">
<path opacity="0.15" d="M0 2C0 0.89543 0.895431 0 2 0H71C72.1046 0 73 0.895431 73 2V12C73 13.1046 72.1046 14 71 14H2C0.895432 14 0 13.1046 0 12V2Z" fill="#888888"/>
<path d="M18.608 10H19.792V8.232H20.512C21.616 8.232 22.552 7.688 22.552 6.464C22.552 5.2 21.648 4.784 20.512 4.784H18.608V10ZM19.792 7.296V5.72H20.44C21.064 5.72 21.4 5.92 21.4 6.464C21.4 7.008 21.088 7.296 20.44 7.296H19.792ZM25.1358 5.72H25.7358C26.3518 5.72 26.6878 5.896 26.6878 6.408C26.6878 6.92 26.3518 7.184 25.7358 7.184H25.1358V5.72ZM28.0958 10L26.9198 7.912C27.4718 7.664 27.8478 7.176 27.8478 6.408C27.8478 5.168 26.9358 4.784 25.8318 4.784H23.9518V10H25.1358V8.12H25.7758L26.7758 10H28.0958ZM31.4936 10.096C32.9016 10.096 33.8616 9.072 33.8616 7.368C33.8616 5.672 32.9016 4.688 31.4936 4.688C30.0936 4.688 29.1256 5.664 29.1256 7.368C29.1256 9.072 30.0936 10.096 31.4936 10.096ZM31.4936 9.08C30.7896 9.08 30.3336 8.416 30.3336 7.368C30.3336 6.328 30.7896 5.704 31.4936 5.704C32.2056 5.704 32.6536 6.328 32.6536 7.368C32.6536 8.416 32.2056 9.08 31.4936 9.08ZM35.0866 7.424C35.0866 9.176 36.1906 10.096 37.5426 10.096C38.1906 10.096 38.7666 9.832 39.1986 9.328L38.5506 8.616C38.2946 8.896 37.9906 9.08 37.5586 9.08C36.7986 9.08 36.2946 8.456 36.2946 7.384C36.2946 6.336 36.8626 5.704 37.5906 5.704C37.9586 5.704 38.2066 5.856 38.4706 6.096L39.1186 5.368C38.7666 5.008 38.2226 4.688 37.5746 4.688C36.2306 4.688 35.0866 5.696 35.0866 7.424ZM40.4752 10H43.8272V9.008H41.6592V7.808H43.4352V6.824H41.6592V5.776H43.7472V4.784H40.4752V10ZM45.0064 9.344C45.5424 9.84 46.2624 10.096 46.9424 10.096C48.1824 10.096 48.9024 9.344 48.9024 8.48C48.9024 7.744 48.5024 7.32 47.8704 7.064L47.2064 6.792C46.7504 6.608 46.4064 6.496 46.4064 6.176C46.4064 5.88 46.6704 5.704 47.0704 5.704C47.4864 5.704 47.8144 5.856 48.1584 6.12L48.7504 5.376C48.3024 4.928 47.6704 4.688 47.0704 4.688C45.9904 4.688 45.2144 5.376 45.2144 6.24C45.2144 7 45.7264 7.448 46.2704 7.664L46.9424 7.952C47.3984 8.144 47.6944 8.248 47.6944 8.576C47.6944 8.888 47.4544 9.08 46.9664 9.08C46.5344 9.08 46.0544 8.856 45.6864 8.536L45.0064 9.344ZM49.7954 9.344C50.3314 9.84 51.0514 10.096 51.7314 10.096C52.9714 10.096 53.6914 9.344 53.6914 8.48C53.6914 7.744 53.2914 7.32 52.6594 7.064L51.9954 6.792C51.5394 6.608 51.1954 6.496 51.1954 6.176C51.1954 5.88 51.4594 5.704 51.8594 5.704C52.2754 5.704 52.6034 5.856 52.9474 6.12L53.5394 5.376C53.0914 4.928 52.4594 4.688 51.8594 4.688C50.7794 4.688 50.0034 5.376 50.0034 6.24C50.0034 7 50.5154 7.448 51.0594 7.664L51.7314 7.952C52.1874 8.144 52.4834 8.248 52.4834 8.576C52.4834 8.888 52.2434 9.08 51.7554 9.08C51.3234 9.08 50.8434 8.856 50.4754 8.536L49.7954 9.344ZM55.0611 10H56.2451V4.784H55.0611V10ZM57.9596 10H59.0876V8.152C59.0876 7.536 58.9916 6.84 58.9356 6.264H58.9676L59.4796 7.4L60.8396 10H62.0476V4.784H60.9276V6.624C60.9276 7.24 61.0236 7.976 61.0796 8.528H61.0476L60.5276 7.376L59.1676 4.784H57.9596V10ZM63.5241 7.424C63.5241 9.176 64.6441 10.096 66.0521 10.096C66.7801 10.096 67.4281 9.792 67.8041 9.464V7.064H65.8921V8.024H66.7561V8.92C66.6281 9.024 66.4121 9.08 66.2041 9.08C65.2201 9.08 64.7321 8.456 64.7321 7.384C64.7321 6.336 65.3081 5.704 66.1081 5.704C66.5561 5.704 66.8041 5.856 67.0681 6.096L67.7161 5.368C67.3641 5.016 66.8281 4.688 66.0921 4.688C64.6761 4.688 63.5241 5.696 63.5241 7.424Z" fill="#888888"/>
<path d="M13.0909 6.5909C12.8648 6.5909 12.6818 6.774 12.6818 7C12.6818 9.0302 11.0301 10.6818 9 10.6818C6.9699 10.6818 5.3182 9.0301 5.3182 7C5.3182 4.9699 6.9698 3.3182 9 3.3182C9.8427 3.3182 10.6417 3.6002 11.2908 4.1183L10.7804 4.6287C10.6738 4.7353 10.7056 4.8531 10.8509 4.8921L13.0823 5.4899C13.2276 5.5289 13.3139 5.4425 13.2751 5.2971L12.6772 3.0657C12.6382 2.9202 12.5204 2.8886 12.4139 2.9951L11.8724 3.5366C11.0666 2.8658 10.0616 2.5 9 2.5C6.5188 2.5 4.5 4.5187 4.5 7C4.5 9.4813 6.5188 11.5 9 11.5C11.4813 11.5 13.5 9.4812 13.5 7C13.5 6.774 13.3169 6.5909 13.0909 6.5909Z" fill="#888888"/>
<path d="M8.54557 4.34833C8.31967 4.34833 8.13647 4.53153 8.13647 4.75743V7.72713C8.13647 7.95323 8.31967 8.13633 8.54557 8.13633H10.8486C11.0746 8.13633 11.2577 7.95323 11.2577 7.72713C11.2577 7.50133 11.0746 7.31813 10.8486 7.31813H8.95477V4.75743C8.95477 4.53153 8.77157 4.34833 8.54557 4.34833Z" fill="#888888"/>
</svg>
