<svg width="67" height="16" viewBox="0 0 67 16" fill="none" xmlns="http://www.w3.org/2000/svg">
<rect opacity="0.15" width="67" height="16" rx="2" fill="#E33F37"/>
<path d="M4.50781 11V5.3125H6.5C7.1901 5.3125 7.71354 5.44531 8.07031 5.71094C8.42708 5.97396 8.60547 6.36068 8.60547 6.87109C8.60547 7.14974 8.53385 7.39583 8.39062 7.60938C8.2474 7.82031 8.04818 7.97526 7.79297 8.07422C8.08464 8.14714 8.3138 8.29427 8.48047 8.51562C8.64974 8.73698 8.73438 9.00781 8.73438 9.32812C8.73438 9.875 8.5599 10.2891 8.21094 10.5703C7.86198 10.8516 7.36458 10.9948 6.71875 11H4.50781ZM5.67969 8.52344V10.0586H6.68359C6.95964 10.0586 7.17448 9.99349 7.32812 9.86328C7.48438 9.73047 7.5625 9.54818 7.5625 9.31641C7.5625 8.79557 7.29297 8.53125 6.75391 8.52344H5.67969ZM5.67969 7.69531H6.54688C7.13802 7.6849 7.43359 7.44922 7.43359 6.98828C7.43359 6.73047 7.35807 6.54557 7.20703 6.43359C7.05859 6.31901 6.82292 6.26172 6.5 6.26172H5.67969V7.69531ZM11.3633 11H10.1914V5.3125H11.3633V11ZM14.125 10.0586H16.6133V11H12.9531V5.3125H14.125V10.0586ZM18.9609 10.0586H21.4492V11H17.7891V5.3125H18.9609V10.0586ZM29.7891 8.28516C29.7891 8.84505 29.6901 9.33594 29.4922 9.75781C29.2943 10.1797 29.0104 10.5052 28.6406 10.7344C28.2734 10.9635 27.8516 11.0781 27.375 11.0781C26.9036 11.0781 26.4831 10.9648 26.1133 10.7383C25.7435 10.5117 25.457 10.1888 25.2539 9.76953C25.0508 9.34766 24.9479 8.86328 24.9453 8.31641V8.03516C24.9453 7.47526 25.0456 6.98307 25.2461 6.55859C25.4492 6.13151 25.7344 5.80469 26.1016 5.57812C26.4714 5.34896 26.8932 5.23438 27.3672 5.23438C27.8411 5.23438 28.2617 5.34896 28.6289 5.57812C28.9987 5.80469 29.2839 6.13151 29.4844 6.55859C29.6875 6.98307 29.7891 7.47396 29.7891 8.03125V8.28516ZM28.6016 8.02734C28.6016 7.43099 28.4948 6.97786 28.2812 6.66797C28.0677 6.35807 27.763 6.20312 27.3672 6.20312C26.974 6.20312 26.6706 6.35677 26.457 6.66406C26.2435 6.96875 26.1354 7.41667 26.1328 8.00781V8.28516C26.1328 8.86589 26.2396 9.31641 26.4531 9.63672C26.6667 9.95703 26.974 10.1172 27.375 10.1172C27.7682 10.1172 28.0703 9.96354 28.2812 9.65625C28.4922 9.34635 28.599 8.89583 28.6016 8.30469V8.02734ZM33.1562 9.58984L34.4453 5.3125H35.75L33.7695 11H32.5469L30.5742 5.3125H31.875L33.1562 9.58984ZM40.2109 8.53516H37.9609V10.0586H40.6016V11H36.7891V5.3125H40.5938V6.26172H37.9609V7.61719H40.2109V8.53516ZM43.8945 8.91797H42.9609V11H41.7891V5.3125H43.9023C44.5742 5.3125 45.0924 5.46224 45.457 5.76172C45.8216 6.0612 46.0039 6.48438 46.0039 7.03125C46.0039 7.41927 45.9193 7.74349 45.75 8.00391C45.5833 8.26172 45.3294 8.46745 44.9883 8.62109L46.2188 10.9453V11H44.9609L43.8945 8.91797ZM42.9609 7.96875H43.9062C44.2005 7.96875 44.4284 7.89453 44.5898 7.74609C44.7513 7.59505 44.832 7.38802 44.832 7.125C44.832 6.85677 44.7552 6.64583 44.6016 6.49219C44.4505 6.33854 44.2174 6.26172 43.9023 6.26172H42.9609V7.96875ZM47.3984 11V5.3125H49.1484C49.6484 5.3125 50.0951 5.42578 50.4883 5.65234C50.8841 5.8763 51.1927 6.19661 51.4141 6.61328C51.6354 7.02734 51.7461 7.4987 51.7461 8.02734V8.28906C51.7461 8.81771 51.6367 9.28776 51.418 9.69922C51.2018 10.1107 50.8958 10.4297 50.5 10.6562C50.1042 10.8828 49.6576 10.9974 49.1602 11H47.3984ZM48.5703 6.26172V10.0586H49.1367C49.5951 10.0586 49.9453 9.90885 50.1875 9.60938C50.4297 9.3099 50.5534 8.88151 50.5586 8.32422V8.02344C50.5586 7.44531 50.4388 7.00781 50.1992 6.71094C49.9596 6.41146 49.6094 6.26172 49.1484 6.26172H48.5703ZM57.4062 5.3125V9.05859C57.4062 9.68099 57.2109 10.1732 56.8203 10.5352C56.4323 10.8971 55.901 11.0781 55.2266 11.0781C54.5625 11.0781 54.0352 10.9023 53.6445 10.5508C53.2539 10.1992 53.0547 9.71615 53.0469 9.10156V5.3125H54.2188V9.06641C54.2188 9.4388 54.3073 9.71094 54.4844 9.88281C54.6641 10.0521 54.9115 10.1367 55.2266 10.1367C55.8854 10.1367 56.2201 9.79036 56.2305 9.09766V5.3125H57.4062ZM62.2891 8.53516H60.0391V10.0586H62.6797V11H58.8672V5.3125H62.6719V6.26172H60.0391V7.61719H62.2891V8.53516Z" fill="#E33F37"/>
</svg>
